Coordinates
version=1
nRows=13
nColumns=38
inDegrees=no

Units are S.I. units (second, meters, Newtons, ...)
If the header above contains a line with 'inDegrees', this indicates whether rotational values are in degrees (yes) or radians (no).

endheader
time	pelvis_tilt	pelvis_list	pelvis_rotation	pelvis_tx	pelvis_ty	pelvis_tz	hip_flexion_r	hip_adduction_r	hip_rotation_r	knee_angle_r	ankle_angle_r	subtalar_angle_r	mtp_angle_r	hip_flexion_l	hip_adduction_l	hip_rotation_l	knee_angle_l	ankle_angle_l	subtalar_angle_l	mtp_angle_l	lumbar_extension	lumbar_bending	lumbar_rotation	arm_flex_r	arm_add_r	arm_rot_r	elbow_flex_r	pro_sup_r	wrist_flex_r	wrist_dev_r	arm_flex_l	arm_add_l	arm_rot_l	elbow_flex_l	pro_sup_l	wrist_flex_l	wrist_dev_l
0	2.96005	1.19482	1.70165	0.614703	1.54954	1.02975	0.594135	-0.150026	-0.0134476	1.12431	-0.193389	0	0	0.555455	0.00799617	-0.420528	0.477691	-0.167637	0	0	0.230314	-0.0902935	-0.0563656	-0.180324	-0.303698	0.256195	0.593128	1.37075	0	0	-0.345569	-0.156912	-0.400053	0.534446	0.90855	0	0
0.01	2.97696	1.16498	1.68994	0.614723	1.541	1.03036	0.646442	-0.135437	0.0110084	1.11331	-0.167988	0	0	0.560721	0.0392594	-0.310759	0.414506	-0.166109	0	0	0.270336	-0.0907635	-0.0577701	-0.187069	-0.296864	0.247759	0.578695	1.36192	0	0	-0.342315	-0.150882	-0.431915	0.519728	0.939692	0	0
0.02	2.99245	1.16218	1.6733	0.614285	1.53084	1.03189	0.66809	-0.12367	0.0167022	1.09944	-0.145918	0	0	0.548937	0.0337448	-0.311175	0.40483	-0.166723	0	0	0.277616	-0.0851711	-0.0567819	-0.192768	-0.29542	0.240045	0.576184	1.35451	0	0	-0.342373	-0.146782	-0.44556	0.517745	0.95047	0	0
0.03	3.00463	1.1606	1.66008	0.613823	1.52062	1.03346	0.68738	-0.114668	0.0185568	1.08156	-0.122505	0	0	0.534417	0.0299122	-0.312126	0.392126	-0.168838	0	0	0.283148	-0.0807487	-0.0550715	-0.198039	-0.293853	0.234003	0.572782	1.3485	0	0	-0.341665	-0.143597	-0.457072	0.515851	0.960122	0	0
0.04	3.01638	1.15869	1.64854	0.613383	1.51052	1.03499	0.705534	-0.106597	0.0188364	1.05872	-0.102255	0	0	0.522599	0.0254704	-0.311746	0.384324	-0.171899	0	0	0.288218	-0.0768695	-0.0548111	-0.201994	-0.291818	0.228368	0.567914	1.34288	0	0	-0.340604	-0.141597	-0.464921	0.513763	0.96761	0	0
0.05	3.02743	1.15713	1.63837	0.612991	1.50041	1.03646	0.72182	-0.0992846	0.0177955	1.03152	-0.0848994	0	0	0.508533	0.0225761	-0.311232	0.372126	-0.175326	0	0	0.292587	-0.0732816	-0.054834	-0.205572	-0.289746	0.222761	0.562399	1.33693	0	0	-0.338883	-0.140129	-0.47161	0.511237	0.975601	0	0
0.06	3.03798	1.156	1.62979	0.612672	1.49024	1.03781	0.735887	-0.0928799	0.0152995	0.999802	-0.0713923	0	0	0.491419	0.0219296	-0.309308	0.353759	-0.17914	0	0	0.296287	-0.0700834	-0.0553919	-0.208728	-0.28778	0.21871	0.556083	1.3323	0	0	-0.336613	-0.138973	-0.477979	0.508841	0.983363	0	0
0.07	3.04913	1.15442	1.62212	0.612412	1.48013	1.03901	0.748586	-0.0869569	0.0117025	0.963011	-0.0617901	0	0	0.475964	0.0211149	-0.305103	0.33778	-0.182705	0	0	0.300188	-0.0669758	-0.0572113	-0.210994	-0.285715	0.216046	0.548431	1.32886	0	0	-0.333785	-0.137923	-0.484628	0.506481	0.990138	0	0
0.08	3.06037	1.15225	1.61532	0.612124	1.47006	1.04	0.760106	-0.081283	0.00761292	0.921281	-0.0553421	0	0	0.463546	0.019015	-0.30087	0.327621	-0.185118	0	0	0.304467	-0.0639515	-0.0602284	-0.212379	-0.283597	0.214488	0.539885	1.32627	0	0	-0.330689	-0.137013	-0.491473	0.503967	0.996167	0	0
0.09	3.07107	1.14906	1.60961	0.611768	1.46001	1.04072	0.770708	-0.0758072	0.00390317	0.874388	-0.0510702	0	0	0.453927	0.0163315	-0.295166	0.321325	-0.189183	0	0	0.309644	-0.0612298	-0.0640248	-0.213347	-0.281433	0.213945	0.53092	1.32421	0	0	-0.327683	-0.136524	-0.497837	0.501412	1.00242	0	0
0.1	3.08098	1.14567	1.60446	0.611397	1.4499	1.04117	0.779446	-0.070343	0.00122315	0.822201	-0.0487594	0	0	0.442813	0.0147361	-0.289531	0.311382	-0.192642	0	0	0.315088	-0.0584606	-0.0673527	-0.214336	-0.279791	0.21525	0.521938	1.32363	0	0	-0.324677	-0.136043	-0.503837	0.499255	1.00866	0	0
0.11	3.08992	1.14266	1.59988	0.611072	1.43974	1.04141	0.785962	-0.064875	-0.00067063	0.765417	-0.0494905	0	0	0.429278	0.0146333	-0.283577	0.297007	-0.193704	0	0	0.319967	-0.0556012	-0.069988	-0.21502	-0.27858	0.217622	0.512851	1.32311	0	0	-0.321111	-0.135009	-0.511451	0.497266	1.01586	0	0
0.12	3.09792	1.14081	1.59591	0.610773	1.42951	1.04145	0.789734	-0.0598909	-0.00336858	0.705253	-0.0532952	0	0	0.413077	0.0153833	-0.277625	0.279443	-0.191246	0	0	0.323227	-0.0526501	-0.0722325	-0.21543	-0.277882	0.220422	0.504363	1.32263	0	0	-0.3175	-0.133802	-0.518904	0.496041	1.02273	0	0
